<?xml version="1.0" encoding="UTF-8"?>
<svg id="Capa_1" data-name="Capa 1" xmlns="http://www.w3.org/2000/svg" viewBox="0 0 400 40.74">
  <defs>
    <style>
      .cls-1 {
        fill: #fff;
      }
    </style>
  </defs>
  <g>
    <path d="m102.56,40.43h9.02l-12.03-27.07h-9.02l-1.5,3.38-.76-1.71c-.45-1-1.29-1.67-2.25-1.67h-15.04c-.96,0-1.79.67-2.25,1.67l-.76,1.71-1.5-3.38h-9.02l-12.03,27.07h9.02l7.52-16.92,1.5,3.38-6.02,13.53h9.02l1.5-3.38.76,1.71c.45,1,1.29,1.67,2.25,1.67h15.04c.96,0,1.8-.67,2.25-1.67l.76-1.71,1.5,3.38h9.02l-6.01-13.53,1.5-3.38,7.52,16.92Zm-21.55-5.65h0c-.26.59-.74,1.1-1.38,1.39-.37.16-.75.24-1.12.24-1.05,0-2.05-.6-2.51-1.62h0s-3.51-7.89-3.51-7.89l3.51-7.89h0c.26-.59.74-1.1,1.38-1.39.37-.16.75-.24,1.13-.24,1.05,0,2.05.6,2.51,1.62h0s3.51,7.89,3.51,7.89l-3.51,7.89Z"/>
    <path class="cls-1" d="m87.31,38.32c-.3.65-.79,1.06-1.3,1.06h-15.04c-.5,0-1-.4-1.29-1.05l-10.63-23.93h6.74l9.25,20.81h.01s-.01,0-.01,0c.61,1.36,1.97,2.24,3.46,2.24.54,0,1.06-.11,1.55-.33.85-.38,1.53-1.06,1.91-1.91h0l3.12-7.03,3.37,7.58h0l-1.14,2.57Z"/>
    <polygon class="cls-1" points="92.96 25.61 92.96 25.61 89.59 18.03 89.59 18.03 91.2 14.4 97.94 14.4 92.96 25.61"/>
    <g>
      <path d="m117,36.82c0,.3.02.58.06.83.04.25.11.47.22.65.11.18.25.33.43.43.18.11.41.16.69.16s.52-.05.7-.16c.18-.11.32-.25.43-.43.11-.18.18-.4.22-.65s.06-.53.06-.83v-8.32h2.41v8.32c0,.76-.11,1.38-.32,1.88-.21.5-.5.89-.85,1.18-.36.29-.76.48-1.22.58-.46.1-.93.15-1.42.15s-.96-.04-1.42-.13c-.46-.09-.86-.27-1.22-.54-.36-.27-.64-.66-.85-1.16-.21-.5-.32-1.15-.32-1.95v-8.32h2.41v8.32Z"/>
      <path d="m129.41,36.67h.03v-8.17h2.21v11.93h-2.74l-2.94-8.35h-.03v8.35h-2.2v-11.93h2.77l2.91,8.17Z"/>
      <path d="m133.44,28.5h2.41v11.93h-2.41v-11.93Z"/>
      <path d="m141.11,37.32h.05l1.77-8.82h2.49l-2.74,11.93h-3.09l-2.74-11.93h2.57l1.69,8.82Z"/>
      <path d="m152.97,30.47h-4.26v2.81h4.01v1.97h-4.01v3.21h4.43v1.97h-6.83v-11.93h6.67v1.97Z"/>
      <path d="m158.78,28.5c1,0,1.78.25,2.34.76.56.51.84,1.28.84,2.31,0,.8-.16,1.46-.48,1.96-.32.51-.82.83-1.5.98v.03c.6.09,1.04.28,1.32.58.28.3.45.79.52,1.45.02.22.04.47.05.73.01.26.02.55.03.88.02.63.06,1.12.1,1.45.07.33.21.56.43.68v.1h-2.61c-.12-.17-.2-.36-.23-.58-.03-.22-.06-.44-.07-.68l-.07-2.29c-.02-.47-.14-.84-.35-1.1-.21-.27-.57-.4-1.07-.4h-1.29v5.04h-2.41v-11.93h4.44Zm-1.04,5.21c.58,0,1.02-.14,1.34-.41.31-.27.47-.73.47-1.38,0-1.1-.56-1.65-1.67-1.65h-1.14v3.44h1Z"/>
      <path d="m165.56,37.05c0,.28.02.53.07.76.04.23.13.42.25.58.12.16.29.28.49.37.21.09.46.13.78.13.37,0,.7-.12.99-.36.29-.24.44-.61.44-1.11,0-.27-.04-.5-.11-.69-.07-.19-.19-.37-.36-.53-.17-.16-.39-.3-.66-.43-.27-.13-.61-.26-1.01-.39-.53-.18-1-.37-1.39-.58-.39-.21-.72-.46-.98-.74-.26-.28-.45-.61-.58-.99-.12-.37-.18-.8-.18-1.29,0-1.18.33-2.06.99-2.64.66-.58,1.56-.87,2.71-.87.53,0,1.03.06,1.48.18.45.12.84.31,1.17.57.33.26.58.6.77,1,.18.41.28.89.28,1.46v.33h-2.3c0-.57-.1-1-.3-1.31-.2-.31-.54-.46-1-.46-.27,0-.49.04-.67.12-.18.08-.32.18-.43.31-.11.13-.18.28-.22.44-.04.17-.06.34-.06.52,0,.37.08.68.23.93.16.25.49.48,1,.69l1.85.8c.46.2.83.41,1.12.63.29.22.52.45.69.7.17.25.29.53.36.83.07.3.1.63.1,1,0,1.26-.36,2.17-1.09,2.75-.73.57-1.75.86-3.05.86s-2.33-.3-2.92-.89c-.58-.59-.88-1.44-.88-2.54v-.48h2.41v.35Z"/>
      <path d="m172.41,28.5h2.41v11.93h-2.41v-11.93Z"/>
      <path d="m180.66,28.5c.84,0,1.51.14,2.02.41.51.27.91.66,1.19,1.17.28.51.48,1.12.58,1.83.1.71.15,1.51.15,2.39,0,1.05-.06,1.96-.19,2.73-.13.77-.35,1.41-.66,1.91-.31.5-.73.87-1.25,1.12-.52.25-1.19.37-1.99.37h-3.79v-11.93h3.94Zm-.47,10.16c.42,0,.76-.07,1.02-.22.26-.14.46-.38.61-.72.15-.33.25-.77.3-1.32.05-.55.07-1.22.07-2.04,0-.68-.02-1.27-.07-1.79-.04-.51-.14-.94-.28-1.28-.14-.34-.35-.6-.62-.77-.27-.17-.64-.26-1.09-.26h-1.02v8.39h1.07Z"/>
      <path d="m191.49,28.5l3.16,11.93h-2.51l-.55-2.52h-3.17l-.55,2.52h-2.51l3.16-11.93h2.97Zm-.32,7.43l-1.15-5.36h-.03l-1.15,5.36h2.34Z"/>
      <path d="m199.54,28.5c.84,0,1.51.14,2.02.41.51.27.91.66,1.19,1.17.28.51.48,1.12.58,1.83.1.71.15,1.51.15,2.39,0,1.05-.06,1.96-.19,2.73-.13.77-.35,1.41-.66,1.91-.31.5-.73.87-1.25,1.12s-1.19.37-1.99.37h-3.79v-11.93h3.94Zm-.47,10.16c.42,0,.76-.07,1.02-.22.26-.14.46-.38.61-.72.15-.33.25-.77.3-1.32.05-.55.07-1.22.07-2.04,0-.68-.02-1.27-.07-1.79-.04-.51-.14-.94-.28-1.28-.14-.34-.35-.6-.62-.77-.27-.17-.64-.26-1.09-.26h-1.02v8.39h1.07Z"/>
      <path d="m213.76,28.5l3.16,11.93h-2.51l-.55-2.52h-3.17l-.55,2.52h-2.51l3.16-11.93h2.97Zm-.32,7.43l-1.15-5.36h-.03l-1.15,5.36h2.34Z"/>
      <path d="m220,36.82c0,.3.02.58.06.83s.11.47.22.65c.11.18.25.33.43.43.18.11.41.16.69.16s.52-.05.7-.16c.18-.11.32-.25.43-.43.11-.18.18-.4.22-.65s.06-.53.06-.83v-8.32h2.41v8.32c0,.76-.11,1.38-.32,1.88-.21.5-.5.89-.85,1.18-.36.29-.76.48-1.22.58-.46.1-.93.15-1.42.15s-.96-.04-1.42-.13c-.46-.09-.86-.27-1.22-.54-.36-.27-.64-.66-.85-1.16-.21-.5-.32-1.15-.32-1.95v-8.32h2.41v8.32Z"/>
      <path d="m233.72,30.47h-2.61v9.96h-2.41v-9.96h-2.61v-1.97h7.62v1.97Z"/>
      <path d="m234.63,31.96c.08-.76.27-1.42.55-1.96.28-.55.69-.97,1.23-1.28s1.25-.46,2.15-.46,1.62.15,2.15.46c.53.31.94.73,1.23,1.28.28.55.47,1.2.55,1.96.08.76.13,1.59.13,2.5s-.04,1.75-.13,2.51c-.08.76-.27,1.41-.55,1.95-.28.55-.69.96-1.23,1.25-.53.29-1.25.43-2.15.43s-1.62-.15-2.15-.43c-.53-.29-.94-.71-1.23-1.25-.28-.55-.47-1.2-.55-1.95-.08-.76-.13-1.59-.13-2.51s.04-1.73.13-2.5Zm2.34,4.54c.04.56.12,1.02.23,1.37.12.35.28.61.5.77.22.16.5.24.86.24s.64-.08.86-.24c.22-.16.38-.42.5-.77.12-.35.19-.81.23-1.37.04-.56.06-1.24.06-2.05s-.02-1.48-.06-2.04c-.04-.56-.12-1.01-.23-1.37-.12-.36-.28-.62-.5-.78-.22-.16-.5-.24-.86-.24s-.64.08-.86.24c-.22.16-.38.42-.5.78-.12.36-.2.81-.23,1.37-.04.56-.06,1.24-.06,2.04s.02,1.48.06,2.05Zm3.72-11.12l-1.64,2.41h-1.57l.9-2.41h2.31Z"/>
      <path d="m249.72,36.67h.03v-8.17h2.2v11.93h-2.74l-2.94-8.35h-.03v8.35h-2.2v-11.93h2.77l2.91,8.17Z"/>
      <path d="m253.51,31.96c.08-.76.27-1.42.55-1.96.28-.55.69-.97,1.23-1.28s1.25-.46,2.15-.46,1.62.15,2.15.46c.53.31.94.73,1.23,1.28.28.55.47,1.2.55,1.96.08.76.13,1.59.13,2.5s-.04,1.75-.13,2.51c-.08.76-.27,1.41-.55,1.95-.28.55-.69.96-1.23,1.25-.53.29-1.25.43-2.15.43s-1.62-.15-2.15-.43c-.53-.29-.94-.71-1.23-1.25-.28-.55-.47-1.2-.55-1.95-.08-.76-.13-1.59-.13-2.51s.04-1.73.13-2.5Zm2.34,4.54c.04.56.12,1.02.23,1.37.12.35.28.61.5.77.22.16.5.24.86.24s.64-.08.86-.24c.22-.16.38-.42.5-.77.12-.35.19-.81.23-1.37.04-.56.06-1.24.06-2.05s-.02-1.48-.06-2.04c-.04-.56-.12-1.01-.23-1.37-.12-.36-.28-.62-.5-.78-.22-.16-.5-.24-.86-.24s-.64.08-.86.24c-.22.16-.38.42-.5.78-.12.36-.19.81-.23,1.37-.04.56-.06,1.24-.06,2.04s.02,1.48.06,2.05Z"/>
      <path d="m266.54,28.5l1.7,8.42h.03l1.72-8.42h3.56v11.93h-2.21v-9.52h-.03l-2.12,9.52h-1.87l-2.12-9.52h-.03v9.52h-2.2v-11.93h3.57Z"/>
      <path d="m280.58,28.5l3.16,11.93h-2.51l-.55-2.52h-3.17l-.55,2.52h-2.51l3.16-11.93h2.97Zm-.32,7.43l-1.15-5.36h-.03l-1.15,5.36h2.34Z"/>
      <path d="m292.2,28.5l1.7,8.42h.03l1.72-8.42h3.56v11.93h-2.2v-9.52h-.03l-2.12,9.52h-1.87l-2.12-9.52h-.03v9.52h-2.2v-11.93h3.58Z"/>
      <path d="m307.6,30.47h-4.26v2.81h4.01v1.97h-4.01v3.21h4.43v1.97h-6.83v-11.93h6.67v1.97Z"/>
      <path d="m315.96,30.47h-2.61v9.96h-2.41v-9.96h-2.61v-1.97h7.62v1.97Z"/>
      <path d="m321.44,28.5c1,0,1.78.25,2.34.76.56.51.84,1.28.84,2.31,0,.8-.16,1.46-.48,1.96-.32.51-.82.83-1.5.98v.03c.6.09,1.04.28,1.32.58.28.3.45.79.52,1.45.02.22.04.47.05.73.01.26.02.55.03.88.02.63.06,1.12.1,1.45.07.33.21.56.43.68v.1h-2.61c-.12-.17-.2-.36-.23-.58-.03-.22-.06-.44-.07-.68l-.07-2.29c-.02-.47-.14-.84-.35-1.1-.21-.27-.57-.4-1.07-.4h-1.29v5.04h-2.41v-11.93h4.44Zm-1.04,5.21c.58,0,1.02-.14,1.34-.41.31-.27.47-.73.47-1.38,0-1.1-.56-1.65-1.67-1.65h-1.14v3.44h1Z"/>
      <path d="m326.15,31.96c.08-.76.27-1.42.55-1.96.28-.55.69-.97,1.23-1.28s1.25-.46,2.15-.46,1.62.15,2.15.46c.53.31.94.73,1.23,1.28.28.55.47,1.2.55,1.96.08.76.13,1.59.13,2.5s-.04,1.75-.13,2.51c-.08.76-.27,1.41-.55,1.95-.28.55-.69.96-1.23,1.25-.53.29-1.25.43-2.15.43s-1.62-.15-2.15-.43c-.53-.29-.94-.71-1.23-1.25-.28-.55-.47-1.2-.55-1.95-.08-.76-.13-1.59-.13-2.51s.04-1.73.13-2.5Zm2.34,4.54c.04.56.12,1.02.23,1.37.12.35.28.61.5.77.22.16.5.24.86.24s.64-.08.86-.24c.22-.16.38-.42.5-.77.12-.35.19-.81.23-1.37.04-.56.06-1.24.06-2.05s-.02-1.48-.06-2.04c-.04-.56-.12-1.01-.23-1.37-.12-.36-.28-.62-.5-.78-.22-.16-.5-.24-.86-.24s-.64.08-.86.24c-.22.16-.38.42-.5.78-.12.36-.2.81-.23,1.37-.04.56-.06,1.24-.06,2.04s.02,1.48.06,2.05Z"/>
      <path d="m339.78,28.5c.61,0,1.13.1,1.55.31.42.21.75.48,1.01.81.26.33.44.72.55,1.14.11.43.17.87.17,1.31,0,.61-.09,1.15-.28,1.6-.18.46-.44.83-.77,1.12-.33.29-.73.51-1.19.65-.47.14-.99.22-1.55.22h-1.29v4.76h-2.41v-11.93h4.21Zm-.74,5.4c.48,0,.87-.14,1.16-.43.3-.29.44-.74.44-1.35s-.13-1.06-.38-1.37c-.26-.31-.68-.47-1.29-.47h-1v3.63h1.07Z"/>
      <path d="m344.11,31.96c.08-.76.27-1.42.55-1.96.28-.55.69-.97,1.23-1.28s1.25-.46,2.15-.46,1.62.15,2.15.46c.53.31.94.73,1.23,1.28.28.55.47,1.2.55,1.96.08.76.12,1.59.12,2.5s-.04,1.75-.12,2.51c-.08.76-.27,1.41-.55,1.95-.28.55-.69.96-1.23,1.25-.53.29-1.25.43-2.15.43s-1.62-.15-2.15-.43c-.53-.29-.94-.71-1.23-1.25-.28-.55-.47-1.2-.55-1.95-.08-.76-.13-1.59-.13-2.51s.04-1.73.13-2.5Zm2.34,4.54c.04.56.12,1.02.23,1.37.12.35.28.61.5.77.22.16.5.24.86.24s.64-.08.86-.24c.22-.16.38-.42.5-.77.12-.35.19-.81.23-1.37.04-.56.06-1.24.06-2.05s-.02-1.48-.06-2.04c-.04-.56-.12-1.01-.23-1.37-.12-.36-.28-.62-.5-.78-.22-.16-.5-.24-.86-.24s-.64.08-.86.24c-.22.16-.38.42-.5.78-.12.36-.19.81-.23,1.37-.04.56-.06,1.24-.06,2.04s.02,1.48.06,2.05Z"/>
      <path d="m353.53,28.5h2.41v9.96h4.26v1.97h-6.67v-11.93Z"/>
      <path d="m361.38,28.5h2.41v11.93h-2.41v-11.93Z"/>
      <path d="m372.55,30.47h-2.61v9.96h-2.41v-9.96h-2.61v-1.97h7.62v1.97Z"/>
      <path d="m377.97,28.5l3.16,11.93h-2.51l-.55-2.52h-3.17l-.55,2.52h-2.51l3.16-11.93h2.97Zm-.32,7.43l-1.15-5.36h-.03l-1.15,5.36h2.34Z"/>
      <path d="m387.64,36.67h.03v-8.17h2.2v11.93h-2.74l-2.94-8.35h-.03v8.35h-2.2v-11.93h2.77l2.91,8.17Z"/>
      <path d="m396.84,28.5l3.16,11.93h-2.51l-.55-2.52h-3.17l-.55,2.52h-2.51l3.16-11.93h2.97Zm-.32,7.43l-1.15-5.36h-.03l-1.15,5.36h2.34Z"/>
    </g>
    <g>
      <path d="m118.36,18.06c-.15-.3-.43-.44-.84-.44-.22,0-.41.06-.56.18-.15.12-.26.32-.34.59-.08.27-.14.62-.18,1.06-.03.44-.05.97-.05,1.61,0,.67.02,1.22.07,1.64.04.42.12.74.21.97.1.23.22.38.36.46.15.08.31.12.51.12.16,0,.31-.03.44-.08.14-.05.26-.16.36-.33.1-.16.18-.39.24-.69.06-.3.09-.69.09-1.17h1.8c0,.48-.04.94-.11,1.37-.08.43-.21.81-.42,1.14-.2.32-.49.58-.86.76-.37.18-.85.27-1.44.27-.67,0-1.21-.11-1.61-.33-.4-.22-.71-.53-.92-.94-.21-.41-.35-.89-.41-1.46-.06-.57-.09-1.19-.09-1.87s.03-1.3.09-1.87c.06-.57.2-1.06.41-1.47.21-.41.52-.73.92-.96.4-.23.94-.34,1.61-.34s1.15.1,1.52.31c.37.21.65.47.83.79.18.32.3.67.34,1.04.04.37.07.72.07,1.04h-1.8c0-.65-.08-1.12-.23-1.42Z"/>
      <path d="m121.43,20.57c0-.39.06-.72.19-.98.12-.26.29-.47.51-.64.21-.16.46-.28.75-.35.29-.07.59-.11.92-.11.52,0,.93.05,1.25.15.32.1.56.24.74.42.18.18.29.4.36.66.06.25.09.53.09.83v3.54c0,.32.01.56.04.74.03.17.09.36.17.56h-1.65c-.06-.11-.1-.22-.13-.34-.03-.12-.06-.24-.08-.36h-.03c-.2.35-.43.58-.69.68-.26.1-.6.16-1.02.16-.3,0-.55-.05-.76-.16-.21-.1-.37-.25-.5-.43-.13-.18-.22-.39-.27-.62-.06-.23-.09-.46-.09-.68,0-.32.03-.59.1-.82.07-.23.17-.42.31-.59.14-.16.31-.3.53-.41.21-.11.47-.2.77-.29l.98-.26c.26-.07.44-.16.54-.28.1-.12.15-.29.15-.51,0-.26-.06-.46-.18-.61-.12-.15-.33-.22-.62-.22-.27,0-.47.08-.6.24-.13.16-.2.37-.2.64v.19h-1.55v-.16Zm2.77,1.68c-.13.05-.25.09-.36.12-.35.07-.6.2-.75.37-.15.18-.22.41-.22.71,0,.26.05.48.15.66.1.18.27.27.5.27.12,0,.24-.02.36-.06.13-.04.24-.1.34-.18.1-.08.19-.19.26-.33.07-.13.1-.29.1-.47v-1.32c-.12.09-.24.16-.37.22Z"/>
      <path d="m128.71,23.42c0,.29.08.53.23.71.15.18.38.27.67.27.27,0,.48-.07.64-.2.16-.13.24-.33.24-.6,0-.22-.06-.38-.19-.49-.12-.11-.27-.2-.44-.27l-1.21-.44c-.47-.17-.83-.4-1.07-.71-.24-.3-.36-.69-.36-1.17,0-.27.05-.53.14-.78.09-.25.24-.46.44-.64.2-.18.46-.33.77-.44.31-.11.69-.16,1.13-.16.78,0,1.36.17,1.74.5.38.33.56.8.56,1.41v.27h-1.55c0-.35-.06-.61-.17-.77-.11-.16-.31-.24-.59-.24-.22,0-.41.06-.57.18-.16.12-.24.3-.24.54,0,.17.05.32.16.45.1.13.3.25.59.34l1.04.35c.54.18.92.42,1.15.72.23.3.34.7.34,1.21,0,.36-.06.67-.19.93-.13.26-.3.48-.52.66-.22.18-.48.3-.79.37-.3.07-.64.11-1.01.11-.48,0-.88-.05-1.21-.14-.32-.09-.57-.23-.76-.41-.19-.18-.32-.41-.39-.67-.07-.26-.11-.56-.11-.88v-.24h1.55v.22Z"/>
      <path d="m132.98,20.57c0-.39.06-.72.19-.98.13-.26.29-.47.51-.64.21-.16.46-.28.75-.35.29-.07.59-.11.92-.11.52,0,.93.05,1.25.15.32.1.56.24.74.42.17.18.29.4.36.66.06.25.09.53.09.83v3.54c0,.32.01.56.04.74.03.17.09.36.17.56h-1.65c-.06-.11-.1-.22-.13-.34-.03-.12-.06-.24-.08-.36h-.03c-.2.35-.43.58-.69.68-.26.1-.6.16-1.02.16-.3,0-.55-.05-.76-.16-.21-.1-.37-.25-.5-.43-.12-.18-.22-.39-.28-.62-.06-.23-.09-.46-.09-.68,0-.32.03-.59.1-.82.07-.23.17-.42.31-.59.14-.16.31-.3.52-.41.21-.11.47-.2.77-.29l.97-.26c.26-.07.44-.16.54-.28.1-.12.15-.29.15-.51,0-.26-.06-.46-.18-.61-.12-.15-.33-.22-.62-.22-.27,0-.47.08-.6.24-.13.16-.2.37-.2.64v.19h-1.55v-.16Zm2.77,1.68c-.13.05-.25.09-.36.12-.35.07-.6.2-.75.37-.15.18-.23.41-.23.71,0,.26.05.48.15.66.1.18.27.27.5.27.12,0,.24-.02.36-.06.12-.04.24-.1.34-.18.1-.08.19-.19.26-.33.07-.13.1-.29.1-.47v-1.32c-.12.09-.24.16-.38.22Z"/>
      <path d="m141.99,20.57c0-.39.06-.72.19-.98.12-.26.29-.47.51-.64.21-.16.46-.28.75-.35.29-.07.59-.11.92-.11.52,0,.93.05,1.25.15.32.1.56.24.74.42.18.18.29.4.36.66.06.25.09.53.09.83v3.54c0,.32.01.56.04.74.03.17.09.36.17.56h-1.65c-.06-.11-.1-.22-.13-.34-.03-.12-.06-.24-.08-.36h-.02c-.2.35-.43.58-.69.68-.26.1-.6.16-1.02.16-.3,0-.55-.05-.76-.16-.21-.1-.38-.25-.5-.43-.13-.18-.22-.39-.27-.62-.06-.23-.09-.46-.09-.68,0-.32.03-.59.1-.82.07-.23.17-.42.31-.59.14-.16.31-.3.52-.41.21-.11.47-.2.77-.29l.97-.26c.26-.07.44-.16.54-.28.1-.12.15-.29.15-.51,0-.26-.06-.46-.18-.61-.12-.15-.33-.22-.62-.22-.27,0-.47.08-.6.24-.13.16-.2.37-.2.64v.19h-1.55v-.16Zm2.77,1.68c-.13.05-.25.09-.36.12-.35.07-.6.2-.75.37-.15.18-.22.41-.22.71,0,.26.05.48.15.66.1.18.27.27.5.27.12,0,.24-.02.36-.06.13-.04.24-.1.34-.18.1-.08.19-.19.26-.33.07-.13.1-.29.1-.47v-1.32c-.12.09-.24.16-.37.22Z"/>
      <path d="m149.74,16.47v2.82h.02c.18-.27.39-.47.62-.6.23-.13.51-.2.83-.2.71,0,1.23.28,1.56.83.33.55.5,1.46.5,2.7s-.17,2.14-.5,2.69c-.33.54-.85.81-1.56.81-.35,0-.64-.06-.88-.19-.24-.12-.45-.35-.64-.66h-.02v.71h-1.65v-8.92h1.72Zm.17,7.22c.11.37.36.56.74.56s.62-.18.73-.56c.11-.37.17-.92.17-1.66s-.06-1.29-.17-1.66c-.11-.37-.36-.56-.73-.56s-.63.18-.74.56c-.11.37-.17.92-.17,1.66s.06,1.28.17,1.66Z"/>
      <path d="m156.04,16.37v1.47h-1.72v-1.47h1.72Zm0,2.3v6.72h-1.72v-6.72h1.72Z"/>
      <path d="m158.73,22.83c0,.2.01.39.04.58.03.19.08.35.14.5.07.15.15.26.26.35.11.09.24.13.4.13.29,0,.5-.1.64-.31.13-.21.22-.52.27-.95h1.55c-.03.78-.24,1.38-.62,1.79-.38.41-.99.61-1.81.61-.62,0-1.11-.1-1.46-.31-.35-.21-.61-.48-.77-.83-.17-.34-.27-.72-.31-1.15-.04-.42-.06-.85-.06-1.27,0-.45.03-.88.09-1.3.06-.42.19-.79.37-1.11.19-.32.46-.58.81-.77.35-.19.82-.29,1.4-.29.5,0,.91.08,1.23.24.32.16.57.39.76.69.18.3.31.65.37,1.07.07.42.1.89.1,1.41v.39h-3.41v.54Zm1.71-2.24c-.03-.19-.07-.36-.13-.5-.06-.14-.15-.24-.26-.31-.11-.07-.26-.11-.43-.11s-.32.04-.43.12c-.11.08-.2.18-.27.31-.07.13-.11.27-.14.43-.03.16-.04.32-.04.47v.26h1.76c0-.26-.02-.49-.05-.68Z"/>
      <path d="m164.69,18.67v.9h.02c.17-.32.39-.58.64-.78.25-.19.55-.29.91-.29.05,0,.1,0,.16,0,.05,0,.11.01.16.02v1.65c-.09,0-.18-.01-.27-.02-.09,0-.18,0-.27,0-.15,0-.3.02-.45.06-.15.04-.29.11-.41.21-.12.1-.23.22-.3.37-.07.15-.11.34-.11.57v4.03h-1.72v-6.72h1.65Z"/>
      <path d="m169.3,16.75v1.92h1v1.17h-1v3.64c0,.27.04.46.12.57.08.11.24.17.49.17.07,0,.13,0,.2,0,.07,0,.13,0,.19-.02v1.2c-.19,0-.38,0-.56.02-.18.01-.37.02-.57.02-.33,0-.61-.02-.82-.07-.21-.05-.37-.14-.49-.27-.11-.14-.19-.32-.23-.54-.04-.22-.06-.51-.06-.85v-3.85h-.87v-1.17h.87v-1.92h1.72Z"/>
      <path d="m170.89,20.57c0-.39.06-.72.19-.98.13-.26.29-.47.51-.64.21-.16.46-.28.75-.35.29-.07.59-.11.92-.11.52,0,.93.05,1.25.15.32.1.56.24.74.42.18.18.29.4.36.66.06.25.09.53.09.83v3.54c0,.32.01.56.04.74.03.17.09.36.17.56h-1.65c-.06-.11-.1-.22-.13-.34-.03-.12-.06-.24-.08-.36h-.03c-.2.35-.43.58-.69.68-.26.1-.6.16-1.02.16-.3,0-.55-.05-.76-.16-.21-.1-.37-.25-.5-.43-.12-.18-.22-.39-.28-.62-.06-.23-.09-.46-.09-.68,0-.32.03-.59.1-.82.07-.23.17-.42.31-.59.14-.16.31-.3.52-.41.21-.11.47-.2.77-.29l.97-.26c.26-.07.44-.16.54-.28.1-.12.15-.29.15-.51,0-.26-.06-.46-.18-.61-.12-.15-.33-.22-.62-.22-.27,0-.47.08-.6.24-.13.16-.2.37-.2.64v.19h-1.55v-.16Zm2.77,1.68c-.13.05-.25.09-.36.12-.35.07-.6.2-.75.37-.15.18-.22.41-.22.71,0,.26.05.48.15.66.1.18.27.27.5.27.12,0,.24-.02.36-.06.12-.04.24-.1.34-.18.1-.08.19-.19.26-.33.07-.13.1-.29.1-.47v-1.32c-.12.09-.24.16-.38.22Z"/>
      <path d="m179.89,20.57c0-.39.06-.72.19-.98.13-.26.29-.47.51-.64.21-.16.46-.28.75-.35.29-.07.59-.11.92-.11.52,0,.93.05,1.25.15.32.1.56.24.74.42.18.18.29.4.36.66.06.25.09.53.09.83v3.54c0,.32.01.56.04.74.03.17.09.36.17.56h-1.65c-.06-.11-.1-.22-.13-.34-.03-.12-.06-.24-.08-.36h-.02c-.2.35-.43.58-.69.68-.26.1-.6.16-1.02.16-.3,0-.55-.05-.76-.16-.21-.1-.37-.25-.5-.43-.13-.18-.22-.39-.28-.62-.06-.23-.09-.46-.09-.68,0-.32.03-.59.1-.82.07-.23.17-.42.31-.59.14-.16.31-.3.52-.41.21-.11.47-.2.77-.29l.97-.26c.26-.07.44-.16.54-.28.1-.12.15-.29.15-.51,0-.26-.06-.46-.18-.61-.12-.15-.33-.22-.62-.22-.27,0-.47.08-.6.24-.13.16-.2.37-.2.64v.19h-1.55v-.16Zm2.77,1.68c-.13.05-.25.09-.36.12-.35.07-.6.2-.75.37-.15.18-.23.41-.23.71,0,.26.05.48.15.66.1.18.27.27.5.27.12,0,.24-.02.36-.06.12-.04.24-.1.34-.18.1-.08.19-.19.26-.33.07-.13.1-.29.1-.47v-1.32c-.12.09-.24.16-.37.22Z"/>
      <path d="m187.7,16.47v8.92h-1.72v-8.92h1.72Z"/>
      <path d="m194.01,16.75v1.92h1v1.17h-1v3.64c0,.27.04.46.12.57.08.11.24.17.49.17.07,0,.13,0,.2,0,.07,0,.13,0,.19-.02v1.2c-.19,0-.38,0-.56.02-.18.01-.37.02-.57.02-.33,0-.61-.02-.82-.07-.21-.05-.38-.14-.49-.27-.11-.14-.19-.32-.23-.54-.04-.22-.06-.51-.06-.85v-3.85h-.87v-1.17h.87v-1.92h1.72Z"/>
      <path d="m197.39,16.37v1.47h-1.72v-1.47h1.72Zm0,2.3v6.72h-1.72v-6.72h1.72Z"/>
      <path d="m200.08,22.83c0,.2.01.39.04.58.03.19.08.35.14.5.07.15.15.26.26.35.11.09.24.13.4.13.29,0,.5-.1.64-.31.13-.21.22-.52.27-.95h1.55c-.03.78-.24,1.38-.62,1.79-.38.41-.99.61-1.81.61-.63,0-1.11-.1-1.46-.31-.35-.21-.61-.48-.77-.83-.17-.34-.27-.72-.31-1.15-.04-.42-.06-.85-.06-1.27,0-.45.03-.88.09-1.3.06-.42.19-.79.37-1.11.19-.32.46-.58.81-.77.35-.19.82-.29,1.4-.29.5,0,.91.08,1.23.24.32.16.57.39.76.69.18.3.31.65.37,1.07.07.42.1.89.1,1.41v.39h-3.41v.54Zm1.71-2.24c-.02-.19-.07-.36-.13-.5-.06-.14-.15-.24-.26-.31-.11-.07-.26-.11-.43-.11s-.32.04-.43.12c-.11.08-.2.18-.27.31-.07.13-.12.27-.14.43-.03.16-.04.32-.04.47v.26h1.76c0-.26-.02-.49-.05-.68Z"/>
      <path d="m206.04,18.67v.69h.03c.22-.31.46-.53.73-.66.27-.13.59-.2.97-.2.4,0,.73.09,1.01.27.27.18.45.45.54.8h.02c.13-.36.35-.63.64-.81.3-.18.65-.27,1.06-.27.57,0,1,.17,1.27.52.27.35.41.84.41,1.49v4.88h-1.72v-4.7c0-.28-.05-.5-.16-.65-.1-.15-.28-.22-.52-.22-.27,0-.49.09-.66.27-.16.18-.24.48-.24.87v4.42h-1.72v-4.7c0-.28-.05-.5-.16-.65-.1-.15-.28-.22-.52-.22-.28,0-.49.09-.66.27-.16.18-.24.48-.24.87v4.42h-1.72v-6.72h1.65Z"/>
      <path d="m215.51,18.67v.71h.02c.19-.32.41-.54.64-.68.24-.14.53-.21.88-.21.71,0,1.23.28,1.56.83.33.55.5,1.46.5,2.7s-.17,2.14-.5,2.69c-.33.54-.85.81-1.56.81-.32,0-.6-.06-.83-.18-.23-.12-.44-.31-.62-.58h-.03v2.79h-1.72v-8.88h1.65Zm.24,5.02c.11.37.36.56.74.56s.62-.18.73-.56c.11-.37.17-.92.17-1.66s-.06-1.29-.17-1.66c-.11-.37-.36-.56-.73-.56s-.63.18-.74.56c-.11.37-.17.92-.17,1.66s.06,1.28.17,1.66Z"/>
      <path d="m220.02,20.51c.09-.44.24-.81.45-1.11.21-.3.48-.52.82-.67.34-.15.75-.23,1.24-.23.52,0,.95.06,1.29.21.34.15.61.37.81.67.2.3.34.67.42,1.11.08.44.12.96.12,1.55s-.05,1.08-.14,1.52c-.09.44-.24.81-.45,1.11-.21.3-.48.51-.82.66-.34.14-.75.21-1.24.21-.52,0-.94-.06-1.29-.19-.34-.14-.61-.35-.81-.65-.2-.3-.34-.67-.42-1.11-.08-.45-.13-.96-.13-1.54s.05-1.08.14-1.52Zm1.61,2.47c.02.29.06.54.12.75.06.21.16.37.28.49.13.12.29.17.5.17.35,0,.59-.18.73-.55.13-.37.2-.97.2-1.81s-.07-1.44-.2-1.81c-.13-.37-.38-.55-.73-.55-.21,0-.37.06-.5.17-.12.12-.22.28-.28.49-.06.21-.1.46-.12.75-.02.29-.03.61-.03.95s0,.66.03.95Z"/>
    </g>
  </g>
  <g>
    <path d="m23.98,32.36c-.22-.4-1.23-2.9-1.23-2.9,0,0-.1.2-.15.29-1.18,2.23-3.35,3.86-5.23,4.74-1.61.76-3.24,1.13-4.89,1.13-1.02,0-2.08-.16-3.17-.47-2.47-.65-4.78-2.37-6.93-5.17l-2.38,5.26s.21.2.32.3c1.99,1.8,4.34,3.07,7.04,3.82,1.76.48,3.49.72,5.21.72,2.7,0,5.31-.59,7.84-1.77,2.16-1.04,3.36-1.92,4.67-3.44.05-.06.15-.17.15-.17,0,0-1.02-1.94-1.25-2.34Z"/>
    <path d="m38.27,30.51c-2.31-1.31-3.82-3.87-4.47-7.62-1-5.73-3.47-8.69-7.41-11.88-2.28-1.85-5.03-2.87-7.35-3.4h7.35V0h-1.24v6.37h-10.75l-1.16,2.18,1.23-.2c.98-.16,7.01.28,11.13,3.62,3.71,3,6.04,5.79,6.97,11.13.72,4.13,2.43,6.98,5.08,8.48,1.59.9,3.29,1.18,4.79,1.18.99,0,1.89-.12,2.62-.27l.63-1.43c-1.36.38-4.64,1.02-7.43-.56Z"/>
    <path d="m64.09,9.69h1.28c-.95-3.23-2.63-6.07-5.61-8.62-.45-.39-.91-.74-1.38-1.07h-2.25c.96.57,1.92,1.24,2.83,2.02,2.68,2.28,4.23,4.79,5.13,7.67Z"/>
    <path d="m13.23,30.36c-.95.22-1.96.13-2.92-.26-.08-.03-.3-.14-.3-.14l-.49,1.14s.15.07.23.1c.95.4,1.98.58,2.94.49.28-.02.55-.07.82-.13,1.52-.36,2.84-1.35,3.71-2.79,1.12-1.84,1.35-3.93.65-5.73-.62-1.6-1.78-2.74-3.36-3.19l-.5,1.11c1.21.35,2.23,1.3,2.71,2.53.57,1.46.37,3.11-.55,4.64-.71,1.17-1.73,1.95-2.94,2.23Z"/>
    <path d="m32.56,31.83c-3.2-2.98-3.63-10.25-5.34-12.91-2.24-3.49-5.43-5.97-9.82-7.3-1.99-.61-4.08-.91-6.27-.91-1.19,0-2.41.1-3.67.3l2.57-6.67h11.7V0H6.03L.12,14.05s-.18,1.36.91,2.18c1.09.82,2.33.34,2.33.34,3.26-.9,5.93-1.36,8-1.36,1.46,0,2.82.18,4.08.55,2.93.9,5.11,2.56,6.56,4.98.66,1.08,1.57,2.51,2.39,4.92.83,2.41,1.88,6.3,4.27,8.74.42.43.85.83,1.3,1.21-1.4,1.81-3.29,3.29-5.65,4.43-.56.26-1.13.49-1.7.69h3.06c2.15-1.16,3.92-2.62,5.26-4.36,2.93,2.16,6.36,3.3,10.3,3.42l1.77-3.98c-.35.03-.7.05-1.06.05-3.48,0-6.54-1.4-9.36-4.03Z"/>
    <path d="m33.17,8.23c2.76-2.7,5.87-4.04,9.36-4.04s6.57,1.35,9.34,4.04c.46.45.88.94,1.27,1.46h5.46c-.78-1.47-1.75-2.81-2.92-4.02-3.5-3.6-7.89-5.41-13.18-5.41s-9.73,1.8-13.25,5.41c-.57.58-1.56,1.82-1.56,1.82l3.5,3.27s1.21-1.79,1.98-2.54Z"/>
  </g>
</svg>